<svg width="48" height="49" viewBox="0 0 48 49" fill="none" xmlns="http://www.w3.org/2000/svg">
<rect x="0.5" y="0.541992" width="47" height="47" rx="9.5" fill="#FEFEF8"/>
<path d="M34 24.1027C34 18.546 29.5233 14.042 24 14.042C18.4767 14.042 14 18.546 14 24.1027C14 29.1253 17.656 33.2873 22.4373 34.042V27.0113H19.8987V24.102H22.4373V21.886C22.4373 19.3647 23.93 17.9713 26.2147 17.9713C27.308 17.9713 28.4533 18.168 28.4533 18.168V20.644H27.1913C25.9493 20.644 25.5627 21.42 25.5627 22.216V24.1027H28.336L27.8927 27.0107H25.5627V34.042C30.344 33.2873 34 29.1253 34 24.1027Z" fill="#3E3A2B"/>
<rect x="0.5" y="0.541992" width="47" height="47" rx="9.5" stroke="#EDE7D6"/>
</svg>
