<svg width="18" height="18" viewBox="0 0 18 18" fill="none" xmlns="http://www.w3.org/2000/svg">
<path d="M17.3335 9.00002L0.666828 9.00002M17.3335 9.00002C17.3335 13.6024 13.6025 17.3334 9.00016 17.3334M17.3335 9.00002C17.3335 4.39765 13.6025 0.666687 9.00016 0.666686M0.666828 9.00002C0.666828 13.6024 4.39779 17.3334 9.00016 17.3334M0.666828 9.00002C0.666828 4.39765 4.39779 0.666686 9.00016 0.666686M9.00016 0.666686C6.91576 2.94865 5.7312 5.91005 5.66683 9.00002C5.7312 12.09 6.91576 15.0514 9.00016 17.3334M9.00016 0.666686C11.0846 2.94865 12.2691 5.91005 12.3335 9.00002C12.2691 12.09 11.0846 15.0514 9.00016 17.3334" stroke="#F6C042" stroke-linecap="round" stroke-linejoin="round"/>
</svg>
