<svg width="22" height="18" viewBox="0 0 22 18" fill="none" xmlns="http://www.w3.org/2000/svg">
<path d="M1 4.01758L9.16492 9.73302C9.82609 10.1958 10.1567 10.4273 10.5163 10.5169C10.8339 10.5961 11.1661 10.5961 11.4837 10.5169C11.8433 10.4273 12.1739 10.1958 12.8351 9.73302L21 4.01758M5.8 17.0176H16.2C17.8802 17.0176 18.7202 17.0176 19.362 16.6906C19.9265 16.403 20.3854 15.944 20.673 15.3795C21 14.7378 21 13.8977 21 12.2176V5.81758C21 4.13742 21 3.29734 20.673 2.65561C20.3854 2.09112 19.9265 1.63218 19.362 1.34456C18.7202 1.01758 17.8802 1.01758 16.2 1.01758H5.8C4.11984 1.01758 3.27976 1.01758 2.63803 1.34456C2.07354 1.63218 1.6146 2.09112 1.32698 2.65561C1 3.29734 1 4.13742 1 5.81758V12.2176C1 13.8977 1 14.7378 1.32698 15.3795C1.6146 15.944 2.07354 16.403 2.63803 16.6906C3.27976 17.0176 4.11984 17.0176 5.8 17.0176Z" stroke="#3E3A2B" stroke-width="1.5" stroke-linecap="round" stroke-linejoin="round"/>
</svg>
