<svg width="22" height="22" viewBox="0 0 22 22" fill="none" xmlns="http://www.w3.org/2000/svg">
<path d="M13.0497 5.01758C14.0264 5.20814 14.924 5.68584 15.6277 6.38951C16.3314 7.09319 16.8091 7.99084 16.9997 8.96758M13.0497 1.01758C15.0789 1.24301 16.9713 2.15175 18.4159 3.59459C19.8606 5.03742 20.7717 6.92859 20.9997 8.95758M9.22664 12.8806C8.02506 11.6791 7.07627 10.3204 6.38028 8.87081C6.32041 8.74612 6.29048 8.68377 6.26748 8.60488C6.18576 8.32453 6.24446 7.98027 6.41447 7.74284C6.46231 7.67603 6.51947 7.61887 6.63378 7.50456C6.98338 7.15495 7.15819 6.98015 7.27247 6.80437C7.70347 6.14148 7.70347 5.2869 7.27247 4.62401C7.15819 4.44823 6.98338 4.27343 6.63378 3.92382L6.43891 3.72895C5.90747 3.19751 5.64174 2.93179 5.35636 2.78744C4.7888 2.50037 4.11854 2.50037 3.55098 2.78745C3.2656 2.93179 2.99987 3.19751 2.46843 3.72895L2.3108 3.88659C1.78117 4.41621 1.51636 4.68102 1.31411 5.04105C1.08969 5.44056 0.928332 6.06105 0.929696 6.51927C0.930924 6.93222 1.01103 7.21444 1.17124 7.77889C2.03221 10.8123 3.65668 13.6746 6.04466 16.0626C8.43264 18.4506 11.295 20.0751 14.3284 20.9361C14.8928 21.0963 15.1751 21.1764 15.588 21.1776C16.0462 21.179 16.6667 21.0176 17.0662 20.7932C17.4263 20.5909 17.6911 20.3261 18.2207 19.7965L18.3783 19.6389C18.9098 19.1074 19.1755 18.8417 19.3198 18.5563C19.6069 17.9887 19.6069 17.3185 19.3198 16.7509C19.1755 16.4655 18.9098 16.1998 18.3783 15.6684L18.1835 15.4735C17.8339 15.1239 17.6591 14.9491 17.4833 14.8348C16.8204 14.4038 15.9658 14.4038 15.3029 14.8348C15.1271 14.9491 14.9523 15.1239 14.6027 15.4735C14.4884 15.5878 14.4313 15.645 14.3644 15.6928C14.127 15.8628 13.7828 15.9215 13.5024 15.8398C13.4235 15.8168 13.3612 15.7869 13.2365 15.727C11.7869 15.031 10.4282 14.0822 9.22664 12.8806Z" stroke="#3E3A2B" stroke-width="1.5" stroke-linecap="round" stroke-linejoin="round"/>
</svg>
