<svg width="22" height="22" viewBox="0 0 22 22" fill="none" xmlns="http://www.w3.org/2000/svg">
<path d="M19.5865 9.41513C20.1819 9.18361 20.4796 9.06785 20.5665 8.90105C20.6418 8.75645 20.6419 8.5842 20.5667 8.43951C20.48 8.2726 20.1825 8.15649 19.5874 7.92427L2.69967 1.33393C2.1625 1.1243 1.89391 1.01948 1.72228 1.07682C1.57323 1.12661 1.45626 1.24358 1.40647 1.39263C1.34913 1.56425 1.45395 1.83284 1.66358 2.37002L8.25392 19.2578C8.48614 19.8528 8.60226 20.1504 8.76916 20.2371C8.91385 20.3123 9.0861 20.3122 9.2307 20.2368C9.3975 20.1499 9.51326 19.8522 9.74479 19.2569L12.3729 12.4989C12.4199 12.378 12.4434 12.3176 12.4797 12.2667C12.5119 12.2216 12.5513 12.1822 12.5964 12.15C12.6473 12.1137 12.7077 12.0902 12.8285 12.0432L19.5865 9.41513Z" stroke="#D6CBA4" stroke-width="1.5" stroke-linecap="round" stroke-linejoin="round"/>
</svg>
