<svg width="23" height="23" viewBox="0 0 23 23" fill="none" xmlns="http://www.w3.org/2000/svg">
<path d="M18.5 13.957C20.3514 14.7737 21.5 15.9118 21.5 17.1707C21.5 19.6559 17.0228 21.6707 11.5 21.6707C5.97715 21.6707 1.5 19.6559 1.5 17.1707C1.5 15.9118 2.64864 14.7737 4.5 13.957M5.5 7.67065C5.5 11.7344 10 13.6707 11.5 16.6707C13 13.6707 17.5 11.7344 17.5 7.67065C17.5 4.35695 14.8137 1.67065 11.5 1.67065C8.18629 1.67065 5.5 4.35695 5.5 7.67065ZM10.5 7.67065C10.5 8.22294 10.9477 8.67065 11.5 8.67065C12.0523 8.67065 12.5 8.22294 12.5 7.67065C12.5 7.11837 12.0523 6.67065 11.5 6.67065C10.9477 6.67065 10.5 7.11837 10.5 7.67065Z" stroke="#D6CBA4" stroke-width="1.5" stroke-linecap="round" stroke-linejoin="round"/>
</svg>
