<svg width="48" height="49" viewBox="0 0 48 49" fill="none" xmlns="http://www.w3.org/2000/svg">
<rect x="0.5" y="0.541992" width="47" height="47" rx="9.5" fill="#FEFEF8"/>
<path fill-rule="evenodd" clip-rule="evenodd" d="M24 15.042C21.5556 15.042 21.2496 15.0522 20.2896 15.096C19.3314 15.1398 18.6768 15.2922 18.1044 15.5148C17.5044 15.7404 16.9602 16.0944 16.5102 16.5528C16.0525 17.0023 15.6983 17.5461 15.4722 18.1464C15.2508 18.7188 15.0978 19.374 15.054 20.3322C15.0108 21.2916 15 21.597 15 24.042C15 26.487 15.0102 26.7924 15.054 27.7524C15.0978 28.7106 15.2502 29.3652 15.4728 29.9376C15.6984 30.5376 16.0524 31.0818 16.5108 31.5318C16.9603 31.9894 17.5041 32.3437 18.1044 32.5698C18.6768 32.7918 19.3314 32.9442 20.2896 32.988C21.2496 33.0318 21.5556 33.042 24 33.042C26.4444 33.042 26.7504 33.0318 27.7104 32.988C28.6686 32.9442 29.3232 32.7918 29.8956 32.5692C30.4956 32.3436 31.0398 31.9896 31.4898 31.5312C31.9475 31.0817 32.3017 30.5379 32.5278 29.9376C32.7498 29.3652 32.9022 28.7106 32.946 27.7524C32.9898 26.7924 33 26.4864 33 24.042C33 21.5976 32.9898 21.2916 32.946 20.3316C32.9022 19.3734 32.7498 18.7188 32.5272 18.1464C32.3012 17.5458 31.947 17.0018 31.4892 16.5522C31.0397 16.0945 30.4959 15.7403 29.8956 15.5142C29.3232 15.2928 28.668 15.1398 27.7098 15.096C26.7504 15.0528 26.445 15.042 24 15.042ZM24 16.6638C26.403 16.6638 26.688 16.6728 27.6372 16.716C28.5144 16.7562 28.9908 16.902 29.3082 17.0262C29.7282 17.1888 30.0282 17.3844 30.3432 17.6988C30.6582 18.0138 30.8532 18.3138 31.0158 18.7338C31.1394 19.0512 31.2858 19.5276 31.326 20.4048C31.3692 21.354 31.3782 21.639 31.3782 24.042C31.3782 26.445 31.3692 26.73 31.326 27.6792C31.2858 28.5564 31.14 29.0328 31.0158 29.3502C30.8718 29.7411 30.6419 30.0948 30.3432 30.3852C30.0528 30.684 29.6992 30.9138 29.3082 31.0578C28.9908 31.1814 28.5144 31.3278 27.6372 31.368C26.688 31.4112 26.4036 31.4202 24 31.4202C21.5964 31.4202 21.312 31.4112 20.3628 31.368C19.4856 31.3278 19.0092 31.182 18.6918 31.0578C18.3009 30.9138 17.9472 30.6839 17.6568 30.3852C17.3581 30.0948 17.1283 29.7411 16.9842 29.3502C16.8606 29.0328 16.7142 28.5564 16.674 27.6792C16.6308 26.73 16.6218 26.445 16.6218 24.042C16.6218 21.639 16.6308 21.354 16.674 20.4048C16.7142 19.5276 16.86 19.0512 16.9842 18.7338C17.1468 18.3138 17.3424 18.0138 17.6568 17.6988C17.9472 17.4 18.3008 17.1702 18.6918 17.0262C19.0092 16.9026 19.4856 16.7562 20.3628 16.716C21.312 16.6728 21.597 16.6638 24 16.6638Z" fill="#3E3A2B"/>
<path fill-rule="evenodd" clip-rule="evenodd" d="M24 27.045C23.6057 27.045 23.2152 26.9674 22.8508 26.8164C22.4865 26.6655 22.1554 26.4443 21.8766 26.1655C21.5977 25.8866 21.3765 25.5556 21.2256 25.1912C21.0747 24.8269 20.997 24.4364 20.997 24.042C20.997 23.6477 21.0747 23.2572 21.2256 22.8928C21.3765 22.5285 21.5977 22.1974 21.8766 21.9186C22.1554 21.6397 22.4865 21.4185 22.8508 21.2676C23.2152 21.1167 23.6057 21.039 24 21.039C24.7965 21.039 25.5603 21.3554 26.1235 21.9186C26.6866 22.4818 27.003 23.2456 27.003 24.042C27.003 24.8385 26.6866 25.6023 26.1235 26.1655C25.5603 26.7286 24.7965 27.045 24 27.045ZM24 19.416C22.7731 19.416 21.5965 19.9034 20.7289 20.7709C19.8614 21.6385 19.374 22.8151 19.374 24.042C19.374 25.2689 19.8614 26.4456 20.7289 27.3131C21.5965 28.1806 22.7731 28.668 24 28.668C25.2269 28.668 26.4036 28.1806 27.2711 27.3131C28.1386 26.4456 28.626 25.2689 28.626 24.042C28.626 22.8151 28.1386 21.6385 27.2711 20.7709C26.4036 19.9034 25.2269 19.416 24 19.416ZM29.9718 19.332C29.9718 19.622 29.8566 19.9002 29.6515 20.1052C29.4465 20.3103 29.1683 20.4255 28.8783 20.4255C28.5883 20.4255 28.3102 20.3103 28.1051 20.1052C27.9 19.9002 27.7848 19.622 27.7848 19.332C27.7848 19.042 27.9 18.7639 28.1051 18.5588C28.3102 18.3537 28.5883 18.2385 28.8783 18.2385C29.1683 18.2385 29.4465 18.3537 29.6515 18.5588C29.8566 18.7639 29.9718 19.042 29.9718 19.332Z" fill="#3E3A2B"/>
<rect x="0.5" y="0.541992" width="47" height="47" rx="9.5" stroke="#EDE7D6"/>
</svg>
