<svg width="48" height="49" viewBox="0 0 48 49" fill="none" xmlns="http://www.w3.org/2000/svg">
<rect x="0.5" y="0.541992" width="47" height="47" rx="9.5" fill="#FEFEF8"/>
<path d="M31.9525 19.962C31.9647 20.1383 31.9647 20.3146 31.9647 20.4925C31.9647 25.9144 27.8371 32.1675 20.2897 32.1675V32.1643C18.0601 32.1675 15.8769 31.5289 14 30.3248C14.3242 30.3638 14.65 30.3833 14.9766 30.3841C16.8243 30.3857 18.6191 29.7658 20.0727 28.6242C18.3169 28.5909 16.7772 27.446 16.2393 25.7747C16.8544 25.8933 17.4881 25.8689 18.0918 25.704C16.1775 25.3172 14.8003 23.6353 14.8003 21.6821C14.8003 21.6642 14.8003 21.6471 14.8003 21.6301C15.3707 21.9478 16.0093 22.1241 16.6626 22.1436C14.8596 20.9386 14.3039 18.5401 15.3926 16.6648C17.4759 19.2283 20.5497 20.7867 23.8493 20.9516C23.5186 19.5265 23.9703 18.0331 25.0364 17.0312C26.689 15.4777 29.2882 15.5573 30.8418 17.2092C31.7607 17.028 32.6415 16.6908 33.4475 16.213C33.1412 17.1629 32.5001 17.9697 31.6437 18.4824C32.457 18.3865 33.2517 18.1688 34 17.8364C33.4491 18.662 32.7552 19.381 31.9525 19.962Z" fill="#3E3A2B"/>
<rect x="0.5" y="0.541992" width="47" height="47" rx="9.5" stroke="#EDE7D6"/>
</svg>
