<svg width="20" height="18" viewBox="0 0 20 18" fill="none" xmlns="http://www.w3.org/2000/svg">
<path d="M17.9525 4.91974C17.9647 5.09605 17.9647 5.27237 17.9647 5.45031C17.9647 10.8722 13.8371 17.1253 6.28966 17.1253V17.1221C4.06013 17.1253 1.8769 16.4867 0 15.2825C0.324193 15.3215 0.65001 15.341 0.97664 15.3418C2.82429 15.3435 4.61913 14.7235 6.07272 13.5819C4.31688 13.5486 2.77717 12.4038 2.23928 10.7325C2.85436 10.8511 3.48812 10.8267 4.09181 10.6618C2.17753 10.275 0.800325 8.59311 0.800325 6.63983C0.800325 6.62195 0.800325 6.60489 0.800325 6.58783C1.37071 6.90552 2.00934 7.08183 2.6626 7.10133C0.859638 5.89638 0.30388 3.49784 1.39265 1.62256C3.47593 4.18604 6.54967 5.74444 9.84928 5.90938C9.51859 4.48423 9.97034 2.99083 11.0364 1.989C12.689 0.43548 15.2882 0.515106 16.8418 2.16694C17.7607 1.98575 18.6415 1.64856 19.4475 1.1708C19.1412 2.12063 18.5001 2.92746 17.6437 3.44015C18.457 3.34428 19.2517 3.12652 20 2.7942C19.4491 3.61972 18.7552 4.33879 17.9525 4.91974Z" fill="#3E3A2B"/>
</svg>
