<svg width="48" height="49" viewBox="0 0 48 49" fill="none" xmlns="http://www.w3.org/2000/svg">
<rect x="0.5" y="0.541992" width="47" height="47" rx="9.5" fill="#FEFEF8"/>
<path fill-rule="evenodd" clip-rule="evenodd" d="M31.792 17.4568C32.6521 17.6879 33.3325 18.3683 33.5635 19.2283C33.9872 20.7944 34 24.0422 34 24.0422C34 24.0422 34 27.3028 33.5764 28.856C33.3453 29.7161 32.665 30.3965 31.8049 30.6276C30.2516 31.0512 24 31.0512 24 31.0512C24 31.0512 17.7484 31.0512 16.1951 30.6276C15.335 30.3965 14.6547 29.7161 14.4236 28.856C14 27.2899 14 24.0422 14 24.0422C14 24.0422 14 20.7944 14.4108 19.2412C14.6418 18.3811 15.3222 17.7007 16.1823 17.4697C17.7356 17.046 23.9872 17.0332 23.9872 17.0332C23.9872 17.0332 30.2388 17.0332 31.792 17.4568ZM27.1836 24.0422L21.9974 27.046V21.0383L27.1836 24.0422Z" fill="#3E3A2B"/>
<rect x="0.5" y="0.541992" width="47" height="47" rx="9.5" stroke="#EDE7D6"/>
</svg>
